<svg width="481" height="597" viewBox="0 0 481 597" fill="none" xmlns="http://www.w3.org/2000/svg">
<path d="M318.174 28.9488C343.614 28.9488 388.171 79.6574 377.31 132.296C372.482 155.648 362.827 163.271 352.593 163.271C333.042 163.271 310.45 136.204 310.45 136.204C310.45 136.204 291.575 83.469 302.871 42.024C305.381 32.9534 311.029 28.9488 318.174 28.9488ZM318.174 8.36777e-05C308.156 -0.0194452 298.432 3.37981 290.611 9.63542C282.789 15.891 277.339 24.628 275.162 34.4008C261.597 83.2277 280.955 139.919 283.175 145.95L284.913 150.775L288.196 154.731C295.533 163.512 321.988 192.22 352.593 192.22C365.193 192.22 395.557 186.961 405.695 138.134C412.888 103.444 402.557 64.797 378.082 34.7868C360.028 12.6893 338.208 8.36777e-05 318.174 8.36777e-05Z" fill="#F2622E"/>
<path d="M346.366 75.2668C327.302 75.0231 308.474 79.5051 291.567 88.312C274.66 97.1189 260.2 109.976 249.48 125.734C248.032 127.824 246.098 129.532 243.845 130.712C241.592 131.891 239.086 132.508 236.543 132.508C233.999 132.508 231.493 131.891 229.24 130.712C226.987 129.532 225.053 127.824 223.605 125.734C212.888 109.973 198.429 97.1135 181.521 88.3062C164.613 79.4989 145.784 75.0188 126.719 75.2668C44.6052 75.2668 0 149.569 0 214.462C0 302.659 152.932 433.122 213.371 477.992C220.056 483.003 228.186 485.712 236.543 485.712C244.899 485.712 253.029 483.003 259.714 477.992C320.153 433.122 473.085 302.708 473.085 214.462C473.085 149.569 428.48 75.2668 346.366 75.2668Z" fill="#F2622E"/>
<path d="M253.873 230.094L145.112 322.73C140.775 326.417 137.292 331.002 134.904 336.167C132.515 341.332 131.278 346.954 131.278 352.644C131.278 358.334 132.515 363.956 134.904 369.121C137.292 374.286 140.775 378.871 145.112 382.558L236.543 460.43C236.543 460.43 313.781 422.555 427.321 261.649L253.873 230.094Z" fill="white"/>
<path d="M260.921 361.86C278.252 361.86 300.168 373.391 313.299 381.448C314.666 382.282 315.817 383.427 316.656 384.791C317.495 386.155 317.998 387.698 318.125 389.294C318.253 390.89 318 392.493 317.387 393.972C316.775 395.452 315.82 396.765 314.602 397.804L271.445 435.293C268.773 437.625 265.337 438.895 261.79 438.863C258.223 438.911 254.771 437.6 252.135 435.196C228.916 413.437 224.861 379.904 246.198 365.719C250.55 363.066 255.584 361.741 260.68 361.908L260.921 361.86ZM260.68 342.609C251.79 342.414 243.04 344.847 235.529 349.605C229.012 353.9 223.58 359.647 219.66 366.395C215.74 373.142 213.439 380.706 212.937 388.492C211.199 409.866 220.999 432.639 239.101 449.381C245.288 455.176 253.457 458.386 261.935 458.355C270.08 458.349 277.949 455.402 284.093 450.057L327.25 412.568C330.759 409.541 333.503 405.729 335.26 401.443C337.016 397.156 337.736 392.515 337.36 387.898C336.983 383.281 335.522 378.818 333.094 374.872C330.666 370.925 327.341 367.608 323.388 365.189C299.299 350.135 278.059 342.56 260.921 342.56L260.68 342.609Z" fill="#F2622E"/>
<path d="M271.445 435.341L314.602 397.852C315.82 396.813 316.774 395.5 317.387 394.021C317.999 392.541 318.252 390.938 318.125 389.342C317.998 387.746 317.494 386.203 316.655 384.839C315.816 383.476 314.666 382.33 313.298 381.496C296.065 370.978 263.721 354.333 246.197 365.719C224.667 379.904 228.722 413.437 252.28 435.245C254.914 437.592 258.315 438.897 261.844 438.914C265.373 438.932 268.787 437.662 271.445 435.341V435.341Z" fill="white"/>
<path d="M260.004 420.336C259.321 420.333 258.647 420.185 258.025 419.902C241.947 412.28 228.978 399.369 221.289 383.33C221.038 382.747 220.905 382.12 220.897 381.486C220.889 380.852 221.006 380.222 221.241 379.633C221.476 379.044 221.825 378.507 222.268 378.052C222.711 377.598 223.24 377.236 223.823 376.985C224.406 376.735 225.033 376.602 225.668 376.594C226.302 376.586 226.932 376.703 227.522 376.938C228.111 377.173 228.649 377.522 229.103 377.965C229.558 378.407 229.921 378.935 230.171 379.518C236.942 393.328 248.164 404.459 262.032 411.121C263.037 411.578 263.855 412.367 264.349 413.354C264.842 414.342 264.982 415.469 264.745 416.547C264.508 417.626 263.908 418.59 263.045 419.28C262.182 419.969 261.109 420.342 260.004 420.336V420.336Z" fill="#F2622E"/>
<path d="M277.575 402.436C276.892 402.433 276.218 402.285 275.596 402.002C259.492 394.394 246.514 381.457 238.86 365.382C238.59 364.253 238.736 363.065 239.272 362.036C239.807 361.006 240.696 360.204 241.775 359.776C242.854 359.348 244.051 359.323 245.147 359.706C246.243 360.089 247.164 360.853 247.742 361.86C254.528 375.658 265.746 386.785 279.603 393.462C280.608 393.92 281.426 394.708 281.92 395.696C282.414 396.683 282.554 397.81 282.316 398.889C282.079 399.967 281.479 400.931 280.616 401.621C279.753 402.31 278.68 402.683 277.575 402.677V402.436Z" fill="#F2622E"/>
<path d="M125.416 298.172C175.698 298.172 216.461 257.432 216.461 207.177C216.461 156.921 175.698 116.181 125.416 116.181C75.1332 116.181 34.3711 156.921 34.3711 207.177C34.3711 257.432 75.1332 298.172 125.416 298.172Z" fill="white"/>
<path d="M125.513 116.133C143.525 116.152 161.128 121.508 176.095 131.523C191.063 141.539 202.723 155.765 209.603 172.403C216.483 189.04 218.273 207.343 214.747 224.997C211.221 242.652 202.538 258.865 189.795 271.588C177.051 284.311 160.82 292.973 143.152 296.478C125.484 299.983 107.174 298.175 90.5342 291.281C73.8948 284.387 59.6737 272.718 49.6685 257.748C39.6634 242.778 34.3233 225.179 34.3233 207.177C34.3233 195.212 36.6826 183.366 41.2665 172.313C45.8504 161.261 52.5689 151.22 61.0379 142.765C69.5069 134.309 79.5603 127.605 90.6234 123.035C101.686 118.466 113.542 116.12 125.513 116.133V116.133ZM125.513 87.1841C101.762 87.1554 78.5355 94.1685 58.7731 107.336C39.0107 120.504 23.6001 139.234 14.491 161.157C5.38197 183.08 2.98377 207.211 7.59984 230.497C12.2159 253.783 23.6388 275.177 40.4234 291.973C57.2079 308.769 78.5998 320.211 101.893 324.853C125.185 329.495 149.332 327.127 171.278 318.049C193.225 308.971 211.983 293.592 225.182 273.856C238.38 254.12 245.425 230.915 245.425 207.177C245.387 175.389 232.746 144.913 210.27 122.422C187.795 99.9319 157.317 87.2607 125.513 87.1841V87.1841Z" fill="#F2622E"/>
<path d="M150.036 176.925C153.077 184.838 141.54 181.123 130.727 185.32C119.913 189.518 113.831 199.795 110.789 192.123C107.748 184.452 114.072 174.416 124.885 170.219C135.699 166.021 146.995 168.868 150.036 176.925Z" fill="#F2622E"/>
<path d="M222.061 161.679C223.557 169.977 212.937 164.188 201.496 166.504C190.055 168.82 182.186 177.745 180.593 169.399C179 161.052 187.159 152.657 198.6 150.582C210.041 148.507 220.371 153.332 222.061 161.679Z" fill="#F2622E"/>
<path d="M141.733 214.462C139.078 206.405 154.767 209.251 171.132 203.848C187.497 198.444 198.406 186.816 201.11 194.873C203.813 202.931 192.614 213.787 176.2 218.997C159.787 224.208 144.388 222.52 141.733 214.462Z" fill="#F2622E"/>
<path d="M351.386 302.418C401.668 302.418 442.43 261.678 442.43 211.422C442.43 161.167 401.668 120.427 351.386 120.427C301.103 120.427 260.341 161.167 260.341 211.422C260.341 261.678 301.103 302.418 351.386 302.418Z" fill="white"/>
<path d="M354.812 235.577C359.371 227.685 353.858 215.973 342.498 209.418C331.139 202.863 318.234 203.947 313.675 211.839C309.116 219.732 314.629 231.443 325.989 237.998C337.349 244.554 350.253 243.47 354.812 235.577Z" fill="#F2622E"/>
<path d="M351.387 120.62C369.414 120.62 387.035 125.966 402.02 135.98C417.006 145.995 428.681 160.229 435.569 176.879C442.456 193.529 444.246 211.847 440.711 229.514C437.177 247.182 428.477 263.404 415.713 276.127C402.95 288.85 386.696 297.502 369.01 300.988C351.324 304.473 333 302.636 316.359 295.708C299.719 288.78 285.509 277.073 275.528 262.069C265.548 247.066 260.246 229.439 260.294 211.422C260.358 187.318 269.983 164.223 287.059 147.201C304.136 130.179 327.269 120.62 351.387 120.62V120.62ZM351.387 91.6712C327.629 91.6617 304.403 98.6971 284.648 111.887C264.893 125.077 249.498 143.828 240.411 165.767C231.324 187.706 228.953 211.846 233.6 235.132C238.247 258.418 249.701 279.803 266.514 296.58C283.326 313.356 304.741 324.77 328.047 329.377C351.353 333.983 375.503 331.575 397.439 322.458C419.375 313.34 438.112 297.923 451.277 278.157C464.442 258.392 471.444 235.167 471.396 211.422C471.294 179.66 458.611 149.231 436.122 126.79C413.632 104.349 383.166 91.722 351.387 91.6712V91.6712Z" fill="#F2622E"/>
<path d="M360.414 321.235C359.311 321.228 358.217 321.032 357.18 320.656C321.071 307.87 320.057 266.28 323.388 239.889C310.411 245.735 296.083 247.926 281.951 246.226C267.82 244.525 254.422 238.997 243.205 230.239C241.239 228.61 239.999 226.269 239.757 223.729C239.514 221.188 240.288 218.655 241.909 216.684C243.531 214.712 245.867 213.463 248.408 213.21C250.949 212.956 253.487 213.719 255.466 215.331C266.451 223.719 280.024 228.007 293.838 227.452C307.651 226.896 320.836 221.534 331.112 212.291C332.706 211.007 334.668 210.262 336.713 210.165C338.759 210.068 340.782 210.624 342.491 211.752C344.199 212.88 345.505 214.521 346.219 216.439C346.933 218.358 347.018 220.453 346.463 222.423C346.463 223.098 327.588 289.536 363.648 302.322C365.812 303.07 367.639 304.562 368.804 306.533C369.969 308.503 370.395 310.823 370.006 313.079C369.617 315.334 368.439 317.378 366.682 318.845C364.925 320.313 362.704 321.108 360.414 321.09V321.235Z" fill="#F2622E"/>
<path d="M334.248 223.677L300.457 238.152C300.457 238.152 284.43 262.662 295.147 271.925C305.863 281.189 327.876 259.719 327.876 259.719L334.248 223.677Z" fill="#F2622E"/>
<path d="M335.407 191.448C330.194 198.106 327.683 186.623 318.753 179.386C309.822 172.149 297.898 172.679 303.112 166.069C308.326 159.459 319.815 159.701 328.745 166.697C337.676 173.693 340.669 184.79 335.407 191.448Z" fill="#F2622E"/>
<path d="M398.937 252.53C392.661 258.175 392.178 246.257 384.455 237.814C376.731 229.371 365.193 227.634 371.71 221.941C378.227 216.247 389.234 218.515 396.813 226.765C404.392 235.016 405.502 246.885 398.937 252.53Z" fill="#F2622E"/>
<path d="M347.042 107.11C414.625 107.11 444.797 170.846 444.797 216.054C444.797 272.456 347.669 373.246 257.445 442.819C251.653 447.295 244.539 449.723 237.218 449.723C229.897 449.723 222.783 447.295 216.992 442.819C126.767 373.198 29.6402 272.408 29.6402 216.054C29.6402 170.798 59.9562 107.11 127.395 107.11C138.872 106.851 150.284 108.905 160.95 113.149C171.616 117.393 181.317 123.741 189.475 131.813C202.177 144.394 219.336 151.453 237.218 151.453C255.101 151.453 272.26 144.394 284.961 131.813C293.12 123.741 302.821 117.393 313.487 113.149C324.153 108.905 335.565 106.851 347.042 107.11V107.11ZM347.042 78.1617C331.811 77.8591 316.674 80.606 302.522 86.2406C288.369 91.8752 275.489 100.284 264.638 110.97C257.353 118.233 247.484 122.311 237.194 122.311C226.905 122.311 217.035 118.233 209.75 110.97C198.909 100.285 186.036 91.8771 171.892 86.2424C157.748 80.6077 142.618 77.8601 127.395 78.1617C45.2809 78.1617 0.675781 151.547 0.675781 216.054C0.675781 296.966 131.884 413.871 199.275 465.882C210.133 474.294 223.481 478.858 237.218 478.858C250.956 478.858 264.304 474.294 275.162 465.882C342.745 413.822 473.761 297.014 473.761 216.054C473.761 151.547 429.156 78.1617 347.042 78.1617V78.1617Z" fill="#F2622E"/>
<path d="M310.45 136.204C310.45 136.204 291.575 83.469 302.871 42.024C314.168 0.579076 391.02 64.8936 377.31 132.296C363.6 199.698 310.45 136.204 310.45 136.204Z" fill="white"/>
<path d="M44.504 539.756C44.792 537.068 46.688 535.724 50.192 535.724C52.064 535.724 53.456 535.868 54.368 536.156C55.28 536.444 55.904 536.948 56.24 537.668C56.624 538.388 56.84 539.036 56.888 539.612C56.984 540.14 57.032 540.956 57.032 542.06V567.26C57.032 568.364 56.984 569.204 56.888 569.78C56.84 570.308 56.648 570.932 56.312 571.652C55.64 572.9 53.984 573.524 51.344 573.524C48.752 573.524 47 573.212 46.088 572.588C45.224 571.916 44.72 570.956 44.576 569.708C42.8 572.252 39.824 573.524 35.648 573.524C31.52 573.524 27.68 571.628 24.128 567.836C20.576 564.044 18.8 559.652 18.8 554.66C18.8 549.62 20.576 545.228 24.128 541.484C27.728 537.692 31.664 535.796 35.936 535.796C37.568 535.796 39.056 536.084 40.4 536.66C41.744 537.236 42.68 537.788 43.208 538.316C43.736 538.796 44.168 539.276 44.504 539.756ZM31.4 554.732C31.4 556.316 32.024 557.756 33.272 559.052C34.52 560.3 36.032 560.924 37.808 560.924C39.584 560.924 41.048 560.276 42.2 558.98C43.4 557.684 44 556.268 44 554.732C44 553.148 43.424 551.684 42.272 550.34C41.168 548.996 39.656 548.324 37.736 548.324C35.864 548.324 34.328 548.996 33.128 550.34C31.976 551.684 31.4 553.148 31.4 554.732ZM72.4186 530.108C71.5546 530.348 70.3786 530.468 68.8906 530.468C67.4026 530.468 66.2266 530.324 65.3626 530.036C64.4986 529.748 63.8746 529.268 63.4906 528.596C63.1546 527.876 62.9386 527.252 62.8426 526.724C62.7946 526.148 62.7706 525.308 62.7706 524.204C62.7706 523.1 62.7946 522.284 62.8426 521.756C62.9386 521.228 63.1546 520.628 63.4906 519.956C64.1626 518.708 66.0106 518.084 69.0346 518.084C71.9146 518.084 73.7146 518.708 74.4346 519.956C74.7706 520.58 74.9626 521.156 75.0106 521.684C75.1066 522.212 75.1546 523.004 75.1546 524.06V524.492C75.1546 525.548 75.1066 526.34 75.0106 526.868C74.9626 527.396 74.7466 527.996 74.3626 528.668C73.9786 529.34 73.3306 529.82 72.4186 530.108ZM65.4346 535.94C66.3466 535.652 67.5466 535.508 69.0346 535.508C70.5226 535.508 71.6986 535.652 72.5626 535.94C73.4266 536.228 74.0266 536.732 74.3626 537.452C74.7466 538.124 74.9626 538.748 75.0106 539.324C75.1066 539.852 75.1546 540.668 75.1546 541.772V571.436C75.1546 577.052 73.2106 581.54 69.3226 584.9C65.4346 588.26 61.1626 589.94 56.5066 589.94C55.4026 589.94 54.5866 589.892 54.0586 589.796C53.5306 589.748 52.9306 589.556 52.2586 589.22C51.0106 588.548 50.3866 586.796 50.3866 583.964C50.3866 581.132 50.9146 579.356 51.9706 578.636C52.9786 577.916 54.3706 577.556 56.1466 577.556C57.8746 577.556 59.4106 577.076 60.7546 576.116C62.0986 575.156 62.7706 573.428 62.7706 570.932V541.268C62.7706 539.588 62.9866 538.364 63.4186 537.596C63.8986 536.78 64.5706 536.228 65.4346 535.94ZM97.7593 573.524C92.9113 573.524 88.8793 571.7 85.6633 568.052C82.4953 564.356 80.9113 559.868 80.9113 554.588V541.988C80.9113 540.836 80.9353 539.996 80.9833 539.468C81.0793 538.94 81.2953 538.316 81.6313 537.596C82.3033 536.3 84.1753 535.652 87.2473 535.652C90.6073 535.652 92.5753 536.564 93.1513 538.388C93.4393 539.156 93.5833 540.38 93.5833 542.06V554.66C93.5833 556.628 94.1353 558.164 95.2393 559.268C96.3913 560.372 97.9033 560.924 99.7753 560.924C101.695 560.924 103.231 560.348 104.383 559.196C105.583 558.044 106.183 556.532 106.183 554.66V541.916C106.183 540.812 106.207 539.996 106.255 539.468C106.351 538.892 106.591 538.244 106.975 537.524C107.599 536.276 109.447 535.652 112.519 535.652C115.543 535.652 117.391 536.3 118.063 537.596C118.399 538.316 118.591 538.964 118.639 539.54C118.735 540.068 118.783 540.884 118.783 541.988V567.476C118.783 568.532 118.735 569.348 118.639 569.924C118.591 570.452 118.375 571.052 117.991 571.724C117.271 572.972 115.423 573.596 112.447 573.596C109.519 573.596 107.719 573.02 107.047 571.868C106.567 571.052 106.327 570.068 106.327 568.916C106.135 569.252 105.703 569.732 105.031 570.356C104.359 570.98 103.711 571.508 103.087 571.94C101.455 572.996 99.6793 573.524 97.7593 573.524ZM149.991 519.956C150.375 519.236 151.023 518.732 151.935 518.444C152.847 518.156 154.047 518.012 155.535 518.012C157.071 518.012 158.295 518.156 159.207 518.444C160.119 518.732 160.743 519.236 161.079 519.956C161.463 520.676 161.679 521.324 161.727 521.9C161.823 522.428 161.871 523.244 161.871 524.348V567.332C161.871 568.436 161.823 569.276 161.727 569.852C161.679 570.38 161.463 570.98 161.079 571.652C160.359 572.948 158.319 573.596 154.959 573.596C151.647 573.596 149.799 572.42 149.415 570.068C147.399 572.372 144.591 573.524 140.991 573.524C136.671 573.524 132.735 571.652 129.183 567.908C125.631 564.116 123.855 559.724 123.855 554.732C123.855 549.692 125.631 545.276 129.183 541.484C132.783 537.692 136.719 535.796 140.991 535.796C144.543 535.796 147.303 536.996 149.271 539.396V524.276C149.271 523.172 149.295 522.356 149.343 521.828C149.439 521.252 149.655 520.628 149.991 519.956ZM138.327 559.052C139.575 560.348 141.087 560.996 142.863 560.996C144.639 560.996 146.103 560.348 147.255 559.052C148.455 557.756 149.055 556.34 149.055 554.804C149.055 553.22 148.479 551.756 147.327 550.412C146.223 549.068 144.711 548.396 142.791 548.396C140.871 548.396 139.335 549.068 138.183 550.412C137.031 551.708 136.455 553.148 136.455 554.732C136.455 556.316 137.079 557.756 138.327 559.052ZM204.183 550.196C204.183 553.124 203.439 555.308 201.951 556.748C200.511 558.14 198.903 558.836 197.127 558.836H180.063C180.063 560.18 180.855 561.308 182.439 562.22C184.023 563.132 185.607 563.588 187.191 563.588C189.975 563.588 192.159 563.3 193.743 562.724L194.535 562.436C195.687 561.908 196.647 561.644 197.415 561.644C198.951 561.644 200.271 562.724 201.375 564.884C201.999 566.18 202.311 567.284 202.311 568.196C202.311 572.468 197.199 574.604 186.975 574.604C183.423 574.604 180.255 574.004 177.471 572.804C174.735 571.556 172.599 569.924 171.063 567.908C168.039 564.02 166.527 559.676 166.527 554.876C166.527 548.828 168.471 544.004 172.359 540.404C176.295 536.756 181.191 534.932 187.047 534.932C193.719 534.932 198.615 537.284 201.735 541.988C203.367 544.484 204.183 547.22 204.183 550.196ZM188.991 552.284C190.815 552.284 191.727 551.516 191.727 549.98C191.727 548.876 191.295 547.988 190.431 547.316C189.615 546.644 188.415 546.308 186.831 546.308C185.295 546.308 183.759 546.956 182.223 548.252C180.687 549.5 179.919 550.844 179.919 552.284H188.991ZM226.011 554.732C226.011 548.972 228.027 544.22 232.059 540.476C236.091 536.732 240.699 534.86 245.883 534.86C251.067 534.86 255.651 536.732 259.635 540.476C263.619 544.172 265.611 548.9 265.611 554.66C265.611 558.644 264.579 562.196 262.515 565.316C260.451 568.388 257.931 570.668 254.955 572.156C252.027 573.596 248.979 574.316 245.811 574.316C242.643 574.316 239.571 573.548 236.595 572.012C233.619 570.428 231.099 568.124 229.035 565.1C227.019 562.028 226.011 558.572 226.011 554.732ZM241.059 559.916C242.595 561.068 244.155 561.644 245.739 561.644C247.323 561.644 248.907 561.044 250.491 559.844C252.075 558.644 252.867 556.868 252.867 554.516C252.867 552.164 252.123 550.412 250.635 549.26C249.147 548.108 247.539 547.532 245.811 547.532C244.083 547.532 242.475 548.132 240.987 549.332C239.499 550.532 238.755 552.308 238.755 554.66C238.755 556.964 239.523 558.716 241.059 559.916ZM300.354 554.732C300.354 556.748 301.026 558.332 302.37 559.484C303.714 560.588 305.13 561.14 306.618 561.14C308.154 561.14 309.57 560.708 310.866 559.844C312.21 558.932 313.29 558.476 314.106 558.476C315.546 558.476 317.298 559.748 319.362 562.292C320.466 563.684 321.018 564.932 321.018 566.036C321.018 567.86 319.698 569.564 317.058 571.148C314.322 573.068 310.962 574.028 306.978 574.028C302.514 574.028 298.218 572.42 294.09 569.204C292.122 567.668 290.514 565.628 289.266 563.084C288.018 560.492 287.394 557.66 287.394 554.588C287.394 551.468 288.018 548.66 289.266 546.164C290.514 543.62 292.122 541.58 294.09 540.044C298.074 536.876 302.322 535.292 306.834 535.292C308.658 535.292 310.434 535.556 312.162 536.084C313.89 536.564 315.162 537.044 315.978 537.524L317.13 538.244C317.994 538.82 318.666 539.276 319.146 539.612C320.394 540.572 321.018 541.676 321.018 542.924C321.018 544.124 320.514 545.492 319.506 547.028C317.778 549.668 316.122 550.988 314.538 550.988C313.626 550.988 312.33 550.46 310.65 549.404C309.786 548.588 308.538 548.18 306.906 548.18C305.322 548.18 303.834 548.756 302.442 549.908C301.05 551.06 300.354 552.668 300.354 554.732ZM346.271 535.868C351.071 535.868 355.055 537.692 358.223 541.34C361.439 544.988 363.047 549.452 363.047 554.732V567.404C363.047 568.508 362.999 569.348 362.903 569.924C362.855 570.452 362.639 571.076 362.255 571.796C361.631 573.044 359.783 573.668 356.711 573.668C353.783 573.668 351.959 573.044 351.239 571.796C350.855 571.076 350.615 570.428 350.519 569.852C350.471 569.276 350.447 568.412 350.447 567.26V554.66C350.447 552.692 349.895 551.156 348.791 550.052C347.687 548.948 346.271 548.396 344.543 548.396C342.863 548.396 341.375 548.924 340.079 549.98C338.783 550.988 338.039 552.14 337.847 553.436V567.404C337.847 568.508 337.799 569.348 337.703 569.924C337.655 570.452 337.439 571.076 337.055 571.796C336.431 573.044 334.583 573.668 331.511 573.668C328.487 573.668 326.639 573.02 325.967 571.724C325.631 571.004 325.415 570.38 325.319 569.852C325.271 569.324 325.247 568.484 325.247 567.332V524.276C325.247 523.172 325.271 522.356 325.319 521.828C325.415 521.252 325.631 520.628 325.967 519.956C326.639 518.66 328.511 518.012 331.583 518.012C334.607 518.012 336.431 518.66 337.055 519.956C337.439 520.676 337.655 521.324 337.703 521.9C337.799 522.428 337.847 523.244 337.847 524.348V540.26C340.247 537.332 343.055 535.868 346.271 535.868ZM368.841 542.06C368.841 540.956 368.865 540.14 368.913 539.612C369.009 539.036 369.225 538.388 369.561 537.668C370.233 536.42 372.105 535.796 375.177 535.796C377.481 535.796 379.113 536.204 380.073 537.02C380.889 537.692 381.321 538.724 381.369 540.116C381.417 540.596 381.441 541.292 381.441 542.204V567.404C381.441 568.508 381.393 569.348 381.297 569.924C381.249 570.452 381.033 571.076 380.649 571.796C380.025 573.044 378.177 573.668 375.105 573.668C372.081 573.668 370.233 573.02 369.561 571.724C369.225 571.004 369.009 570.38 368.913 569.852C368.865 569.324 368.841 568.484 368.841 567.332V542.06ZM380.649 528.74C380.313 529.412 379.689 529.892 378.777 530.18C377.865 530.468 376.641 530.612 375.105 530.612C373.617 530.612 372.417 530.468 371.505 530.18C370.593 529.892 369.945 529.388 369.561 528.668C369.225 527.948 369.009 527.324 368.913 526.796C368.865 526.22 368.841 525.38 368.841 524.276C368.841 523.172 368.865 522.356 368.913 521.828C369.009 521.252 369.225 520.628 369.561 519.956C370.233 518.66 372.105 518.012 375.177 518.012C378.201 518.012 380.025 518.66 380.649 519.956C381.033 520.676 381.249 521.324 381.297 521.9C381.393 522.428 381.441 523.244 381.441 524.348C381.441 525.452 381.393 526.292 381.297 526.868C381.249 527.396 381.033 528.02 380.649 528.74ZM399.073 554.732C399.073 556.748 399.745 558.332 401.089 559.484C402.433 560.588 403.849 561.14 405.337 561.14C406.873 561.14 408.289 560.708 409.585 559.844C410.929 558.932 412.009 558.476 412.825 558.476C414.265 558.476 416.017 559.748 418.081 562.292C419.185 563.684 419.737 564.932 419.737 566.036C419.737 567.86 418.417 569.564 415.777 571.148C413.041 573.068 409.681 574.028 405.697 574.028C401.233 574.028 396.937 572.42 392.809 569.204C390.841 567.668 389.233 565.628 387.985 563.084C386.737 560.492 386.113 557.66 386.113 554.588C386.113 551.468 386.737 548.66 387.985 546.164C389.233 543.62 390.841 541.58 392.809 540.044C396.793 536.876 401.041 535.292 405.553 535.292C407.377 535.292 409.153 535.556 410.881 536.084C412.609 536.564 413.881 537.044 414.697 537.524L415.849 538.244C416.713 538.82 417.385 539.276 417.865 539.612C419.113 540.572 419.737 541.676 419.737 542.924C419.737 544.124 419.233 545.492 418.225 547.028C416.497 549.668 414.841 550.988 413.257 550.988C412.345 550.988 411.049 550.46 409.369 549.404C408.505 548.588 407.257 548.18 405.625 548.18C404.041 548.18 402.553 548.756 401.161 549.908C399.769 551.06 399.073 552.668 399.073 554.732ZM423.308 554.732C423.308 548.972 425.324 544.22 429.356 540.476C433.388 536.732 437.996 534.86 443.18 534.86C448.364 534.86 452.948 536.732 456.932 540.476C460.916 544.172 462.908 548.9 462.908 554.66C462.908 558.644 461.876 562.196 459.812 565.316C457.748 568.388 455.228 570.668 452.252 572.156C449.324 573.596 446.276 574.316 443.108 574.316C439.94 574.316 436.868 573.548 433.892 572.012C430.916 570.428 428.396 568.124 426.332 565.1C424.316 562.028 423.308 558.572 423.308 554.732ZM438.356 559.916C439.892 561.068 441.452 561.644 443.036 561.644C444.62 561.644 446.204 561.044 447.788 559.844C449.372 558.644 450.164 556.868 450.164 554.516C450.164 552.164 449.42 550.412 447.932 549.26C446.444 548.108 444.836 547.532 443.108 547.532C441.38 547.532 439.772 548.132 438.284 549.332C436.796 550.532 436.052 552.308 436.052 554.66C436.052 556.964 436.82 558.716 438.356 559.916Z" fill="#F2622E"/>
</svg>
