<svg width="196" height="201" viewBox="0 0 196 201" fill="none" xmlns="http://www.w3.org/2000/svg">
<g clip-path="url(#clip0)">
<path d="M131.634 11.9756C142.158 11.9756 160.592 32.9529 156.099 54.7286C154.101 64.3889 150.107 67.5425 145.873 67.5425C137.785 67.5425 128.438 56.3453 128.438 56.3453C128.438 56.3453 120.629 34.5297 125.303 17.3846C126.341 13.6323 128.678 11.9756 131.634 11.9756ZM131.634 4.09853e-06C127.489 -0.00807466 123.466 1.39814 120.23 3.98598C116.995 6.57383 114.74 10.1882 113.839 14.231C108.227 34.4299 116.236 57.8822 117.154 60.3771L117.873 62.373L119.231 64.0097C122.267 67.6423 133.211 79.5182 145.873 79.5182C151.086 79.5182 163.648 77.3426 167.842 57.1437C170.818 42.7929 166.544 26.8054 156.418 14.3907C148.949 5.24932 139.922 4.09853e-06 131.634 4.09853e-06Z" fill="#FA8162"/>
<path d="M143.295 31.1366C135.408 31.0358 127.619 32.8899 120.624 36.5332C113.63 40.1764 107.647 45.4953 103.213 52.0141C102.613 52.8787 101.813 53.5852 100.881 54.0732C99.9492 54.5612 98.9125 54.8162 97.8602 54.8162C96.8079 54.8162 95.7712 54.5612 94.8391 54.0732C93.9069 53.5852 93.107 52.8787 92.5078 52.0141C88.0742 45.494 82.0922 40.1742 75.0972 36.5308C68.1022 32.8874 60.3124 31.034 52.4251 31.1366C18.4536 31.1366 0 61.874 0 88.7194C0 125.205 63.2696 179.175 88.2739 197.738C91.0395 199.81 94.4032 200.931 97.8602 200.931C101.317 200.931 104.681 199.81 107.447 197.738C132.451 179.175 195.72 125.225 195.72 88.7194C195.72 61.874 177.267 31.1366 143.295 31.1366Z" fill="#FA8162"/>
<path d="M105.031 95.1862L60.0355 133.508C58.2415 135.033 56.8006 136.93 55.8124 139.067C54.8243 141.203 54.3125 143.529 54.3125 145.883C54.3125 148.237 54.8243 150.563 55.8124 152.699C56.8006 154.836 58.2415 156.733 60.0355 158.258L97.8614 190.472C97.8614 190.472 129.816 174.804 176.789 108.24L105.031 95.1862Z" fill="#F2D785"/>
<path d="M107.945 149.695C115.115 149.695 124.182 154.466 129.614 157.799C130.18 158.144 130.656 158.618 131.003 159.182C131.35 159.746 131.559 160.384 131.611 161.044C131.664 161.705 131.559 162.368 131.306 162.98C131.052 163.592 130.657 164.135 130.153 164.565L112.299 180.073C111.193 181.038 109.772 181.564 108.305 181.55C106.829 181.57 105.401 181.028 104.31 180.034C94.7041 171.032 93.0265 157.16 101.854 151.292C103.655 150.194 105.737 149.646 107.845 149.715L107.945 149.695ZM107.845 141.732C104.167 141.651 100.548 142.658 97.4402 144.626C94.7439 146.403 92.4967 148.78 90.8749 151.571C89.2532 154.363 88.3011 157.492 88.0935 160.713C87.3745 169.555 91.4288 178.976 98.9181 185.902C101.477 188.299 104.857 189.627 108.365 189.614C111.734 189.611 114.99 188.392 117.531 186.181L135.386 170.673C136.838 169.421 137.973 167.844 138.7 166.07C139.427 164.297 139.724 162.377 139.568 160.467C139.413 158.557 138.808 156.711 137.804 155.078C136.799 153.446 135.424 152.073 133.788 151.073C123.822 144.845 115.035 141.712 107.945 141.712L107.845 141.732Z" fill="#FA8162"/>
<path d="M112.299 180.093L130.154 164.585C130.658 164.155 131.052 163.612 131.306 163C131.559 162.388 131.664 161.725 131.611 161.064C131.559 160.404 131.35 159.766 131.003 159.202C130.656 158.638 130.18 158.164 129.614 157.819C122.485 153.468 109.104 146.582 101.854 151.292C92.9468 157.16 94.6244 171.032 104.37 180.054C105.46 181.024 106.867 181.564 108.327 181.572C109.787 181.579 111.2 181.053 112.299 180.093V180.093Z" fill="white"/>
<path d="M107.566 173.886C107.283 173.885 107.004 173.824 106.747 173.706C100.096 170.553 94.7301 165.212 91.5489 158.577C91.4453 158.336 91.3903 158.077 91.3869 157.815C91.3835 157.552 91.4319 157.292 91.5293 157.048C91.6266 156.804 91.7711 156.582 91.9543 156.394C92.1376 156.206 92.3561 156.056 92.5974 155.953C92.8387 155.849 93.098 155.794 93.3606 155.791C93.6232 155.787 93.8838 155.836 94.1277 155.933C94.3716 156.03 94.5939 156.175 94.7819 156.358C94.97 156.541 95.1201 156.759 95.2237 157C98.0247 162.713 102.668 167.318 108.405 170.074C108.821 170.263 109.159 170.589 109.363 170.998C109.568 171.406 109.626 171.873 109.527 172.319C109.429 172.765 109.181 173.164 108.824 173.449C108.467 173.734 108.023 173.889 107.566 173.886V173.886Z" fill="#FA8162"/>
<path d="M114.835 166.481C114.553 166.48 114.274 166.419 114.017 166.302C107.354 163.154 101.985 157.802 98.8183 151.152C98.7067 150.685 98.7672 150.194 98.9887 149.768C99.2102 149.342 99.5779 149.01 100.024 148.833C100.471 148.656 100.966 148.646 101.419 148.804C101.873 148.963 102.254 149.279 102.493 149.695C105.301 155.403 109.941 160.006 115.674 162.769C116.09 162.958 116.428 163.284 116.633 163.693C116.837 164.101 116.895 164.568 116.797 165.014C116.699 165.46 116.45 165.859 116.093 166.144C115.736 166.429 115.292 166.583 114.835 166.581V166.481Z" fill="#FA8162"/>
<path d="M51.8849 123.349C72.6874 123.349 89.5511 106.495 89.5511 85.7055C89.5511 64.9157 72.6874 48.0622 51.8849 48.0622C31.0825 48.0622 14.2188 64.9157 14.2188 85.7055C14.2188 106.495 31.0825 123.349 51.8849 123.349Z" fill="white"/>
<path d="M51.9262 48.0422C59.3782 48.0501 66.6605 50.2657 72.8527 54.409C79.0449 58.5523 83.869 64.4373 86.7152 71.3201C89.5615 78.2028 90.3021 85.7744 88.8435 93.0778C87.3848 100.381 83.7924 107.088 78.5203 112.352C73.2482 117.615 66.5331 121.198 59.2238 122.648C51.9145 124.098 44.3391 123.35 37.4552 120.498C30.5713 117.646 24.6879 112.819 20.5486 106.626C16.4094 100.433 14.2001 93.153 14.2001 85.7056C14.2001 80.7562 15.1762 75.8553 17.0726 71.2832C18.969 66.7111 21.7486 62.5573 25.2523 59.0594C28.756 55.5615 32.9152 52.7881 37.4921 50.8977C42.069 49.0073 46.9739 48.037 51.9262 48.0422V48.0422ZM51.9262 36.0666C42.1001 36.0547 32.4912 38.956 24.3153 44.4031C16.1394 49.8503 9.76386 57.5987 5.99534 66.668C2.22682 75.7373 1.23465 85.7199 3.14437 95.3529C5.05409 104.986 9.77988 113.836 16.7238 120.784C23.6678 127.733 32.5178 132.466 42.1543 134.386C51.7908 136.306 61.7807 135.327 70.86 131.572C79.9393 127.816 87.7001 121.454 93.1605 113.29C98.6208 105.125 101.535 95.5258 101.535 85.7056C101.52 72.5557 96.2897 59.9481 86.9913 50.6441C77.693 41.3402 65.084 36.0983 51.9262 36.0666V36.0666Z" fill="#FA8162"/>
<path d="M62.0701 73.191C63.3283 76.4644 58.5551 74.9275 54.0815 76.664C49.6079 78.4004 47.0915 82.6518 45.8333 79.4782C44.5751 76.3047 47.1913 72.1531 51.6649 70.4167C56.1385 68.6802 60.8119 69.8578 62.0701 73.191Z" fill="#FA8162"/>
<path d="M91.8686 66.8839C92.4877 70.3169 88.094 67.9218 83.3608 68.8798C78.6275 69.8379 75.3722 73.5303 74.7131 70.0774C74.0541 66.6244 77.4292 63.1515 82.1625 62.2932C86.8957 61.435 91.1696 63.4309 91.8686 66.8839Z" fill="#FA8162"/>
<path d="M58.6358 88.7194C57.5374 85.3862 64.0281 86.5638 70.7985 84.3284C77.5688 82.0929 82.0823 77.2827 83.2007 80.6159C84.3191 83.9491 79.6858 88.44 72.8955 90.5956C66.1052 92.7512 59.7343 92.0526 58.6358 88.7194Z" fill="#FA8162"/>
<path d="M145.371 125.105C166.174 125.105 183.037 108.252 183.037 87.462C183.037 66.6721 166.174 49.8186 145.371 49.8186C124.569 49.8186 107.705 66.6721 107.705 87.462C107.705 108.252 124.569 125.105 145.371 125.105Z" fill="#F2D785"/>
<path d="M146.79 97.4544C148.676 94.1896 146.395 89.3446 141.695 86.6328C136.996 83.9211 131.657 84.3696 129.771 87.6344C127.884 90.8993 130.165 95.7443 134.865 98.456C139.565 101.168 144.904 100.719 146.79 97.4544Z" fill="#FA8162"/>
<path d="M145.373 49.8984C152.83 49.8985 160.121 52.1099 166.32 56.2529C172.52 60.3958 177.35 66.2839 180.199 73.1718C183.049 80.0597 183.789 87.6376 182.327 94.9463C180.865 102.255 177.266 108.966 171.985 114.229C166.705 119.492 159.98 123.072 152.663 124.514C145.346 125.956 137.766 125.195 130.881 122.329C123.997 119.463 118.118 114.621 113.989 108.414C109.86 102.207 107.667 94.9153 107.686 87.462C107.713 77.4903 111.695 67.9361 118.76 60.8945C125.824 53.8528 135.395 49.8984 145.373 49.8984V49.8984ZM145.373 37.9228C135.544 37.9189 125.935 40.8293 117.762 46.2858C109.589 51.7422 103.22 59.4993 99.4606 68.5751C95.7012 77.6509 94.7205 87.6373 96.6429 97.2704C98.5652 106.903 103.304 115.75 110.26 122.69C117.215 129.63 126.075 134.352 135.717 136.258C145.359 138.163 155.35 137.167 164.425 133.395C173.5 129.624 181.252 123.246 186.698 115.069C192.145 106.892 195.041 97.2847 195.022 87.462C194.979 74.3225 189.732 61.7345 180.428 52.4509C171.124 43.1674 158.52 37.9439 145.373 37.9228V37.9228Z" fill="#FA8162"/>
<path d="M149.107 132.89C148.651 132.887 148.198 132.806 147.769 132.65C132.83 127.361 132.411 110.156 133.789 99.238C128.421 101.657 122.493 102.563 116.646 101.859C110.8 101.156 105.257 98.8691 100.616 95.2462C99.8033 94.5722 99.2904 93.6039 99.19 92.5529C99.0895 91.502 99.4098 90.4541 100.081 89.6385C100.751 88.823 101.718 88.3062 102.769 88.2013C103.82 88.0964 104.87 88.4119 105.689 89.0787C110.234 92.5489 115.849 94.3225 121.564 94.0929C127.279 93.8633 132.733 91.6449 136.984 87.8213C137.644 87.2899 138.456 86.982 139.302 86.9419C140.148 86.9018 140.985 87.1316 141.692 87.5982C142.399 88.0648 142.939 88.7439 143.235 89.5374C143.53 90.331 143.565 91.1978 143.335 92.0127C143.335 92.2922 135.527 119.776 150.445 125.065C151.34 125.375 152.096 125.992 152.578 126.808C153.06 127.623 153.236 128.582 153.076 129.515C152.915 130.448 152.427 131.294 151.7 131.901C150.974 132.508 150.054 132.837 149.107 132.83V132.89Z" fill="#FA8162"/>
<path d="M138.282 92.5316L124.302 98.5195C124.302 98.5195 117.672 108.659 122.105 112.491C126.539 116.323 135.646 107.441 135.646 107.441L138.282 92.5316Z" fill="#FA8162"/>
<path d="M138.762 79.1988C136.605 81.9532 135.567 77.2029 131.872 74.209C128.177 71.215 123.244 71.4346 125.401 68.7002C127.558 65.9657 132.311 66.0655 136.006 68.9596C139.701 71.8537 140.939 76.4444 138.762 79.1988Z" fill="#FA8162"/>
<path d="M165.043 104.467C162.446 106.803 162.247 101.873 159.051 98.3798C155.856 94.8869 151.083 94.1683 153.779 91.8131C156.475 89.4579 161.028 90.396 164.164 93.8091C167.299 97.2221 167.759 102.132 165.043 104.467Z" fill="#FA8162"/>
<path d="M143.575 44.3098C171.535 44.3098 184.017 70.6761 184.017 89.3781C184.017 112.711 143.834 154.406 106.508 183.187C104.111 185.039 101.168 186.043 98.1395 186.043C95.1107 186.043 92.1675 185.039 89.7715 183.187C52.4448 154.386 12.2622 112.691 12.2622 89.3781C12.2622 70.6562 24.8043 44.3098 52.7044 44.3098C57.4526 44.2026 62.1738 45.0522 66.5864 46.8079C70.999 48.5636 75.0126 51.1895 78.3877 54.529C83.6425 59.7335 90.7413 62.6535 98.1395 62.6535C105.538 62.6535 112.636 59.7335 117.891 54.529C121.266 51.1895 125.28 48.5636 129.693 46.8079C134.105 45.0522 138.826 44.2026 143.575 44.3098V44.3098ZM143.575 32.3342C137.273 32.209 131.011 33.3453 125.156 35.6763C119.301 38.0072 113.972 41.4856 109.483 45.9066C106.469 48.911 102.386 50.5982 98.1295 50.5982C93.8727 50.5982 89.7896 48.911 86.7757 45.9066C82.2904 41.4862 76.965 38.008 71.1134 35.677C65.2618 33.346 59.0025 32.2094 52.7044 32.3342C18.7329 32.3342 0.279297 62.6924 0.279297 89.3781C0.279297 122.85 54.5618 171.212 82.4419 192.728C86.9339 196.207 92.4561 198.096 98.1395 198.096C103.823 198.096 109.345 196.207 113.837 192.728C141.797 171.192 196 122.87 196 89.3781C196 62.6924 177.546 32.3342 143.575 32.3342V32.3342Z" fill="#FA8162"/>
<path d="M128.437 56.3453C128.437 56.3453 120.628 34.5297 125.301 17.3846C129.974 0.239516 161.769 26.8454 156.097 54.7286C150.425 82.6119 128.437 56.3453 128.437 56.3453Z" fill="#F2D785"/>
</g>
<defs>
<clipPath id="clip0">
<rect width="196.001" height="201" fill="white"/>
</clipPath>
</defs>
</svg>
