<?xml version="1.0" encoding="UTF-8"?>
<!DOCTYPE svg PUBLIC "-//W3C//DTD SVG 1.1//EN" "http://www.w3.org/Graphics/SVG/1.1/DTD/svg11.dtd">
<!-- Creator: CorelDRAW 2019 (64 Bit) -->
<svg xmlns="http://www.w3.org/2000/svg" xml:space="preserve" width="37.6027mm" height="53.181mm" version="1.1" style="shape-rendering:geometricPrecision; text-rendering:geometricPrecision; image-rendering:optimizeQuality; fill-rule:evenodd; clip-rule:evenodd"
viewBox="0 0 3760.27 5318.1"
 xmlns:xlink="http://www.w3.org/1999/xlink">
 <defs>
  <style type="text/css">
   <![CDATA[
    .fil3 {fill:none}
    .fil1 {fill:#F2D785}
    .fil0 {fill:#FA8162}
    .fil2 {fill:white}
   ]]>
  </style>
   <clipPath id="id0">
    <path d="M1301.04 3570.74l928.58 0 0 -952.26 -928.58 0 0 952.26z"/>
   </clipPath>
 </defs>
 <g id="Camada_x0020_1">
  <metadata id="CorelCorpID_0Corel-Layer"/>
  <g>
  </g>
  <g style="clip-path:url(#id0)">
   <g>
    <path class="fil0" d="M1924.68 2675.21c49.86,0 137.19,99.38 115.91,202.55 -9.47,45.77 -28.39,60.71 -48.45,60.71 -38.32,0 -82.6,-53.05 -82.6,-53.05 0,0 -37,-103.35 -14.85,-184.58 4.92,-17.78 15.99,-25.63 29.99,-25.63zm0 -56.74c-19.64,-0.04 -38.7,6.62 -54.03,18.88 -15.33,12.26 -26.01,29.38 -30.28,48.54 -26.59,95.7 11.36,206.8 15.71,218.62l3.41 9.46 6.43 7.76c14.38,17.21 66.23,73.47 126.22,73.47 24.7,0 84.21,-10.31 104.08,-106 14.1,-67.99 -6.15,-143.73 -54.12,-202.55 -35.38,-43.31 -78.15,-68.18 -117.42,-68.18z"/>
    <path class="fil0" d="M1979.92 2765.99c-37.37,-0.48 -74.27,8.31 -107.41,25.57 -33.14,17.26 -61.48,42.46 -82.49,73.34 -2.84,4.1 -6.63,7.44 -11.05,9.76 -4.42,2.31 -9.33,3.52 -14.31,3.52 -4.99,0 -9.9,-1.21 -14.31,-3.52 -4.42,-2.31 -8.21,-5.66 -11.04,-9.76 -21.01,-30.89 -49.35,-56.09 -82.49,-73.35 -33.14,-17.26 -70.04,-26.04 -107.41,-25.56 -160.95,0 -248.37,145.62 -248.37,272.81 0,172.85 299.75,428.55 418.21,516.49 13.1,9.82 29.04,15.13 45.42,15.13 16.38,0 32.31,-5.31 45.42,-15.13 118.46,-87.95 418.21,-343.54 418.21,-516.49 0,-127.18 -87.42,-272.81 -248.37,-272.81z"/>
    <path class="fil1" d="M1798.64 3069.44l-213.17 181.55c-8.5,7.23 -15.33,16.21 -20.01,26.34 -4.68,10.12 -7.11,21.14 -7.11,32.29 0,11.15 2.42,22.17 7.11,32.29 4.68,10.12 11.51,19.11 20.01,26.34l179.21 152.62c0,0 151.39,-74.23 373.93,-389.59l-339.96 -61.84z"/>
    <path class="fil0" d="M1812.45 3327.68c33.97,0 76.92,22.6 102.66,38.39 2.68,1.63 4.94,3.88 6.58,6.55 1.65,2.67 2.64,5.69 2.88,8.82 0.25,3.13 -0.25,6.27 -1.45,9.17 -1.2,2.9 -3.07,5.47 -5.46,7.51l-84.58 73.47c-5.24,4.57 -11.97,7.06 -18.92,7 -6.99,0.09 -13.76,-2.47 -18.93,-7.18 -45.51,-42.65 -53.45,-108.37 -11.64,-136.17 8.53,-5.2 18.4,-7.8 28.38,-7.47l0.47 -0.09zm-0.47 -37.73c-17.42,-0.38 -34.57,4.39 -49.29,13.71 -12.77,8.42 -23.42,19.68 -31.1,32.9 -7.68,13.23 -12.19,28.05 -13.18,43.31 -3.41,41.89 15.8,86.52 51.28,119.33 12.12,11.36 28.13,17.65 44.75,17.59 15.96,-0.01 31.39,-5.79 43.43,-16.26l84.59 -73.47c6.88,-5.93 12.26,-13.4 15.7,-21.81 3.45,-8.4 4.85,-17.5 4.11,-26.54 -0.73,-9.05 -3.6,-17.8 -8.36,-25.53 -4.76,-7.73 -11.28,-14.24 -19.03,-18.97 -47.21,-29.51 -88.84,-44.35 -122.43,-44.35l-0.47 0.09z"/>
    <path class="fil2" d="M1833.07 3471.69l84.59 -73.47c2.39,-2.04 4.25,-4.61 5.46,-7.51 1.2,-2.9 1.7,-6.04 1.45,-9.17 -0.25,-3.13 -1.24,-6.15 -2.88,-8.82 -1.64,-2.67 -3.9,-4.92 -6.58,-6.55 -33.77,-20.61 -97.17,-53.24 -131.52,-30.92 -42.2,27.8 -34.25,93.52 11.92,136.27 5.16,4.59 11.83,7.15 18.75,7.19 6.92,0.03 13.61,-2.46 18.82,-7.01l0 0z"/>
    <path class="fil0" d="M1810.65 3442.29c-1.34,-0.01 -2.66,-0.29 -3.88,-0.85 -31.51,-14.94 -56.93,-40.24 -72,-71.68 -0.49,-1.14 -0.75,-2.37 -0.77,-3.61 -0.02,-1.25 0.21,-2.48 0.68,-3.63 0.46,-1.16 1.14,-2.21 2.01,-3.1 0.87,-0.89 1.9,-1.6 3.05,-2.09 1.14,-0.49 2.37,-0.75 3.62,-0.77 1.24,-0.02 2.48,0.21 3.63,0.67 1.15,0.46 2.21,1.15 3.1,2.01 0.89,0.87 1.6,1.9 2.09,3.04 13.27,27.07 35.27,48.88 62.45,61.94 1.97,0.9 3.57,2.44 4.54,4.38 0.97,1.93 1.24,4.15 0.78,6.26 -0.47,2.11 -1.64,4 -3.33,5.35 -1.69,1.35 -3.8,2.08 -5.96,2.07l0 0z"/>
    <path class="fil0" d="M1845.09 3407.2c-1.34,-0.01 -2.66,-0.29 -3.88,-0.85 -31.57,-14.91 -57,-40.27 -72,-71.77 -0.53,-2.21 -0.24,-4.54 0.81,-6.56 1.05,-2.02 2.79,-3.59 4.9,-4.43 2.12,-0.84 4.46,-0.89 6.61,-0.14 2.15,0.75 3.96,2.25 5.09,4.22 13.3,27.04 35.29,48.85 62.45,61.94 1.97,0.9 3.57,2.44 4.54,4.38 0.97,1.93 1.24,4.15 0.78,6.26 -0.47,2.11 -1.64,4 -3.34,5.35 -1.69,1.35 -3.79,2.08 -5.96,2.07l0 -0.47z"/>
    <path class="fil2" d="M1546.85 3202.86c98.55,0 178.45,-79.85 178.45,-178.34 0,-98.49 -79.9,-178.34 -178.45,-178.34 -98.55,0 -178.45,79.85 -178.45,178.34 0,98.49 79.89,178.34 178.45,178.34z"/>
    <path class="fil0" d="M1547.05 2846.08c35.31,0.04 69.81,10.53 99.14,30.16 29.34,19.63 52.19,47.51 65.68,80.12 13.49,32.61 16.99,68.48 10.08,103.08 -6.91,34.6 -23.93,66.37 -48.91,91.31 -24.98,24.93 -56.79,41.91 -91.42,48.78 -34.63,6.87 -70.52,3.33 -103.13,-10.19 -32.61,-13.51 -60.49,-36.38 -80.1,-65.72 -19.61,-29.34 -30.08,-63.83 -30.08,-99.11 0,-23.45 4.63,-46.67 13.61,-68.33 8.98,-21.66 22.15,-41.34 38.75,-57.91 16.6,-16.57 36.3,-29.71 57.99,-38.67 21.68,-8.96 44.92,-13.55 68.38,-13.53l0 0zm0 -56.74c-46.55,-0.06 -92.07,13.69 -130.81,39.5 -38.74,25.81 -68.94,62.52 -86.79,105.48 -17.85,42.97 -22.55,90.26 -13.51,135.9 9.05,45.64 31.44,87.56 64.33,120.48 32.9,32.92 74.83,55.35 120.48,64.44 45.65,9.1 92.98,4.46 136,-13.33 43.01,-17.79 79.78,-47.93 105.65,-86.61 25.87,-38.68 39.67,-84.16 39.67,-130.68 -0.07,-62.3 -24.85,-122.03 -68.9,-166.11 -44.05,-44.08 -103.79,-68.91 -166.13,-69.06l0 0z"/>
    <path class="fil0" d="M1595.11 2965.23c5.96,15.51 -16.65,8.23 -37.85,16.45 -21.19,8.23 -33.12,28.37 -39.08,13.33 -5.96,-15.04 6.43,-34.7 27.63,-42.93 21.19,-8.23 43.33,-2.65 49.3,13.14z"/>
    <path class="fil0" d="M1736.28 2935.35c2.93,16.27 -17.88,4.92 -40.31,9.46 -22.42,4.54 -37.85,22.03 -40.97,5.67 -3.12,-16.36 12.87,-32.81 35.29,-36.88 22.42,-4.06 42.67,5.39 45.98,21.75z"/>
    <path class="fil0" d="M1578.84 3038.8c-5.2,-15.79 25.55,-10.21 57.62,-20.8 32.08,-10.59 53.46,-33.38 58.76,-17.59 5.3,15.79 -16.65,37.07 -48.82,47.28 -32.17,10.21 -62.35,6.9 -67.56,-8.89z"/>
    <path class="fil1" d="M1989.76 3211.18c98.56,0 178.45,-79.84 178.45,-178.34 0,-98.5 -79.89,-178.34 -178.45,-178.34 -98.55,0 -178.45,79.85 -178.45,178.34 0,98.49 79.9,178.34 178.45,178.34z"/>
    <path class="fil0" d="M1996.48 3080.18c8.94,-15.47 -1.87,-38.42 -24.14,-51.27 -22.26,-12.85 -47.56,-10.72 -56.49,4.75 -8.94,15.47 1.87,38.42 24.13,51.27 22.27,12.85 47.56,10.72 56.5,-4.75z"/>
    <path class="fil0" d="M1989.77 2854.88c35.33,0 69.87,10.48 99.24,30.11 29.37,19.63 52.26,47.52 65.75,80.15 13.5,32.63 17.01,68.53 10.08,103.16 -6.93,34.62 -23.98,66.42 -49,91.35 -25.01,24.93 -56.88,41.89 -91.54,48.73 -34.66,6.83 -70.58,3.23 -103.19,-10.35 -32.61,-13.58 -60.47,-36.52 -80.03,-65.92 -19.56,-29.41 -29.95,-63.95 -29.86,-99.26 0.13,-47.24 18.99,-92.51 52.46,-125.87 33.47,-33.36 78.81,-52.09 126.08,-52.09l0 0zm0 -56.74c-46.57,-0.02 -92.09,13.77 -130.81,39.62 -38.72,25.85 -68.9,62.6 -86.7,105.6 -17.81,43 -22.46,90.31 -13.35,135.95 9.11,45.63 31.56,87.55 64.51,120.43 32.95,32.88 74.93,55.25 120.61,64.28 45.68,9.02 93.01,4.31 136.01,-13.56 42.99,-17.87 79.72,-48.08 105.52,-86.82 25.81,-38.74 39.53,-84.25 39.44,-130.79 -0.2,-62.25 -25.06,-121.89 -69.14,-165.87 -44.08,-43.98 -103.79,-68.73 -166.08,-68.83l0 0z"/>
    <path class="fil0" d="M2007.46 3248.06c-2.16,-0.01 -4.31,-0.4 -6.34,-1.14 -70.78,-25.06 -72.76,-106.57 -66.23,-158.29 -25.43,11.46 -53.52,15.75 -81.22,12.42 -27.7,-3.33 -53.96,-14.16 -75.94,-31.33 -3.85,-3.19 -6.28,-7.78 -6.76,-12.76 -0.48,-4.98 1.04,-9.94 4.22,-13.81 3.17,-3.86 7.76,-6.31 12.73,-6.81 4.98,-0.5 9.95,1 13.83,4.16 21.53,16.44 48.13,24.84 75.21,23.76 27.08,-1.09 52.92,-11.6 73.05,-29.71 3.13,-2.52 6.97,-3.98 10.98,-4.16 4.01,-0.19 7.97,0.9 11.32,3.11 3.35,2.21 5.91,5.43 7.31,9.19 1.4,3.76 1.56,7.87 0.47,11.73 0,1.33 -36.99,131.53 33.68,156.59 4.24,1.47 7.82,4.39 10.1,8.26 2.28,3.86 3.12,8.4 2.36,12.82 -0.76,4.42 -3.07,8.43 -6.52,11.3 -3.44,2.88 -7.8,4.43 -12.28,4.4l0 0.28z"/>
    <path class="fil0" d="M1956.17 3056.86l-66.23 28.37c0,0 -31.41,48.03 -10.41,66.19 21.01,18.15 64.15,-23.92 64.15,-23.92l12.49 -70.63z"/>
    <path class="fil0" d="M1958.44 2993.69c-10.22,13.05 -15.14,-9.46 -32.64,-23.64 -17.51,-14.18 -40.88,-13.14 -30.66,-26.1 10.22,-12.96 32.74,-12.48 50.24,1.23 17.5,13.71 23.37,35.46 13.06,48.51z"/>
    <path class="fil0" d="M2082.96 3113.4c-12.31,11.07 -13.25,-12.29 -28.39,-28.84 -15.14,-16.55 -37.75,-19.95 -24.98,-31.11 12.77,-11.16 34.34,-6.71 49.2,9.46 14.85,16.17 17.03,39.43 4.16,50.49z"/>
    <path class="fil0" d="M1981.25 2828.4c132.46,0 191.6,124.91 191.6,213.52 0,110.54 -190.37,308.08 -367.21,444.43 -11.36,8.77 -25.3,13.53 -39.65,13.53 -14.35,0 -28.29,-4.76 -39.64,-13.53 -176.84,-136.45 -367.21,-333.99 -367.21,-444.43 0,-88.7 59.42,-213.52 191.6,-213.52 22.5,-0.51 44.86,3.52 65.77,11.84 20.91,8.32 39.92,20.76 55.91,36.58 24.89,24.66 58.53,38.49 93.58,38.49 35.05,0 68.68,-13.83 93.57,-38.49 15.99,-15.82 35.01,-28.26 55.91,-36.58 20.9,-8.32 43.27,-12.34 65.77,-11.84l0 0zm0 -56.74c-29.86,-0.59 -59.52,4.79 -87.26,15.83 -27.74,11.04 -52.99,27.52 -74.25,48.47 -14.28,14.23 -33.62,22.23 -53.79,22.23 -20.17,0 -39.51,-7.99 -53.79,-22.23 -21.25,-20.94 -46.48,-37.42 -74.2,-48.46 -27.72,-11.04 -57.38,-16.43 -87.22,-15.84 -160.95,0 -248.37,143.83 -248.37,270.25 0,158.58 257.17,387.7 389.26,489.63 21.28,16.48 47.44,25.43 74.37,25.43 26.93,0 53.09,-8.95 74.37,-25.43 132.47,-102.03 389.26,-330.96 389.26,-489.63 0,-126.43 -87.43,-270.25 -248.37,-270.25l0 0z"/>
    <path class="fil1" d="M1909.53 2885.42c0,0 -37,-103.35 -14.86,-184.58 22.14,-81.23 172.77,44.82 145.9,176.92 -26.87,132.1 -131.04,7.66 -131.04,7.66z"/>
   </g>
  </g>
  <polygon class="fil3" points="1301.04,3570.74 2229.62,3570.74 2229.62,2618.48 1301.04,2618.48 "/>
 </g>
</svg>
