<svg width="346" height="57" viewBox="0 0 346 57" fill="none" xmlns="http://www.w3.org/2000/svg">
<path d="M20.392 17.2925C20.616 15.2018 22.0907 14.1565 24.816 14.1565C26.272 14.1565 27.3547 14.2685 28.064 14.4925C28.7733 14.7165 29.2587 15.1085 29.52 15.6685C29.8187 16.2285 29.9867 16.7325 30.024 17.1805C30.0987 17.5911 30.136 18.2258 30.136 19.0845V38.6845C30.136 39.5431 30.0987 40.1965 30.024 40.6445C29.9867 41.0551 29.8373 41.5405 29.576 42.1005C29.0533 43.0711 27.7653 43.5565 25.712 43.5565C23.696 43.5565 22.3333 43.3138 21.624 42.8285C20.952 42.3058 20.56 41.5591 20.448 40.5885C19.0667 42.5671 16.752 43.5565 13.504 43.5565C10.2933 43.5565 7.30667 42.0818 4.544 39.1325C1.78133 36.1831 0.4 32.7671 0.4 28.8845C0.4 24.9645 1.78133 21.5485 4.544 18.6365C7.344 15.6871 10.4053 14.2125 13.728 14.2125C14.9973 14.2125 16.1547 14.4365 17.2 14.8845C18.2453 15.3325 18.9733 15.7618 19.384 16.1725C19.7947 16.5458 20.1307 16.9191 20.392 17.2925ZM10.2 28.9405C10.2 30.1725 10.6853 31.2925 11.656 32.3005C12.6267 33.2711 13.8027 33.7565 15.184 33.7565C16.5653 33.7565 17.704 33.2525 18.6 32.2445C19.5333 31.2365 20 30.1351 20 28.9405C20 27.7085 19.552 26.5698 18.656 25.5245C17.7973 24.4791 16.6213 23.9565 15.128 23.9565C13.672 23.9565 12.4773 24.4791 11.544 25.5245C10.648 26.5698 10.2 27.7085 10.2 28.9405ZM42.1034 9.78846C41.4314 9.97512 40.5167 10.0685 39.3594 10.0685C38.202 10.0685 37.2874 9.95646 36.6154 9.73246C35.9434 9.50846 35.458 9.13512 35.1594 8.61245C34.898 8.05245 34.73 7.56712 34.6554 7.15646C34.618 6.70846 34.5994 6.05512 34.5994 5.19646C34.5994 4.33779 34.618 3.70312 34.6554 3.29246C34.73 2.88179 34.898 2.41512 35.1594 1.89245C35.682 0.921789 37.1194 0.436456 39.4714 0.436456C41.7114 0.436456 43.1114 0.921789 43.6714 1.89245C43.9327 2.37779 44.082 2.82579 44.1194 3.23645C44.194 3.64712 44.2314 4.26312 44.2314 5.08446V5.42046C44.2314 6.24179 44.194 6.85779 44.1194 7.26846C44.082 7.67912 43.914 8.14579 43.6154 8.66846C43.3167 9.19112 42.8127 9.56446 42.1034 9.78846ZM36.6714 14.3245C37.3807 14.1005 38.314 13.9885 39.4714 13.9885C40.6287 13.9885 41.5434 14.1005 42.2154 14.3245C42.8874 14.5485 43.354 14.9405 43.6154 15.5005C43.914 16.0231 44.082 16.5085 44.1194 16.9565C44.194 17.3671 44.2314 18.0018 44.2314 18.8605V41.9325C44.2314 46.3005 42.7194 49.7911 39.6954 52.4045C36.6714 55.0178 33.3487 56.3245 29.7274 56.3245C28.8687 56.3245 28.234 56.2871 27.8234 56.2125C27.4127 56.1751 26.946 56.0258 26.4234 55.7645C25.4527 55.2418 24.9674 53.8791 24.9674 51.6765C24.9674 49.4738 25.378 48.0925 26.1994 47.5325C26.9834 46.9725 28.066 46.6925 29.4474 46.6925C30.7914 46.6925 31.986 46.3191 33.0314 45.5725C34.0767 44.8258 34.5994 43.4818 34.5994 41.5405V18.4685C34.5994 17.1618 34.7674 16.2098 35.1034 15.6125C35.4767 14.9778 35.9994 14.5485 36.6714 14.3245ZM61.8128 43.5565C58.0421 43.5565 54.9061 42.1378 52.4048 39.3005C49.9408 36.4258 48.7088 32.9351 48.7088 28.8285V19.0285C48.7088 18.1325 48.7274 17.4791 48.7648 17.0685C48.8394 16.6578 49.0074 16.1725 49.2688 15.6125C49.7914 14.6045 51.2474 14.1005 53.6368 14.1005C56.2501 14.1005 57.7808 14.8098 58.2288 16.2285C58.4528 16.8258 58.5648 17.7778 58.5648 19.0845V28.8845C58.5648 30.4151 58.9941 31.6098 59.8528 32.4685C60.7488 33.3271 61.9248 33.7565 63.3808 33.7565C64.8741 33.7565 66.0688 33.3085 66.9648 32.4125C67.8981 31.5165 68.3648 30.3405 68.3648 28.8845V18.9725C68.3648 18.1138 68.3834 17.4791 68.4208 17.0685C68.4954 16.6205 68.6821 16.1165 68.9808 15.5565C69.4661 14.5858 70.9034 14.1005 73.2928 14.1005C75.6448 14.1005 77.0821 14.6045 77.6048 15.6125C77.8661 16.1725 78.0154 16.6765 78.0528 17.1245C78.1274 17.5351 78.1648 18.1698 78.1648 19.0285V38.8525C78.1648 39.6738 78.1274 40.3085 78.0528 40.7565C78.0154 41.1671 77.8474 41.6338 77.5488 42.1565C76.9888 43.1271 75.5514 43.6125 73.2368 43.6125C70.9594 43.6125 69.5594 43.1645 69.0368 42.2685C68.6634 41.6338 68.4768 40.8685 68.4768 39.9725C68.3274 40.2338 67.9914 40.6071 67.4688 41.0925C66.9461 41.5778 66.4421 41.9885 65.9568 42.3245C64.6874 43.1458 63.3061 43.5565 61.8128 43.5565ZM102.438 1.89245C102.736 1.33245 103.24 0.940455 103.95 0.716456C104.659 0.492454 105.592 0.380454 106.75 0.380454C107.944 0.380454 108.896 0.492454 109.606 0.716456C110.315 0.940455 110.8 1.33245 111.062 1.89245C111.36 2.45246 111.528 2.95646 111.566 3.40445C111.64 3.81512 111.678 4.44979 111.678 5.30845V38.7405C111.678 39.5991 111.64 40.2525 111.566 40.7005C111.528 41.1111 111.36 41.5778 111.062 42.1005C110.502 43.1085 108.915 43.6125 106.302 43.6125C103.726 43.6125 102.288 42.6978 101.99 40.8685C100.422 42.6605 98.2377 43.5565 95.4377 43.5565C92.0777 43.5565 89.0164 42.1005 86.2537 39.1885C83.491 36.2391 82.1097 32.8231 82.1097 28.9405C82.1097 25.0205 83.491 21.5858 86.2537 18.6365C89.0537 15.6871 92.115 14.2125 95.4377 14.2125C98.2004 14.2125 100.347 15.1458 101.878 17.0125V5.25245C101.878 4.39379 101.896 3.75912 101.934 3.34846C102.008 2.90045 102.176 2.41512 102.438 1.89245ZM93.3657 32.3005C94.3364 33.3085 95.5124 33.8125 96.8937 33.8125C98.275 33.8125 99.4137 33.3085 100.31 32.3005C101.243 31.2925 101.71 30.1911 101.71 28.9965C101.71 27.7645 101.262 26.6258 100.366 25.5805C99.507 24.5351 98.331 24.0125 96.8377 24.0125C95.3444 24.0125 94.1497 24.5351 93.2537 25.5805C92.3577 26.5885 91.9097 27.7085 91.9097 28.9405C91.9097 30.1725 92.395 31.2925 93.3657 32.3005ZM144.586 25.4125C144.586 27.6898 144.008 29.3885 142.85 30.5085C141.73 31.5911 140.48 32.1325 139.098 32.1325H125.826C125.826 33.1778 126.442 34.0551 127.674 34.7645C128.906 35.4738 130.138 35.8285 131.37 35.8285C133.536 35.8285 135.234 35.6045 136.466 35.1565L137.082 34.9325C137.978 34.5218 138.725 34.3165 139.322 34.3165C140.517 34.3165 141.544 35.1565 142.402 36.8365C142.888 37.8445 143.13 38.7031 143.13 39.4125C143.13 42.7351 139.154 44.3965 131.202 44.3965C128.44 44.3965 125.976 43.9298 123.81 42.9965C121.682 42.0258 120.021 40.7565 118.826 39.1885C116.474 36.1645 115.298 32.7858 115.298 29.0525C115.298 24.3485 116.81 20.5965 119.834 17.7965C122.896 14.9591 126.704 13.5405 131.258 13.5405C136.448 13.5405 140.256 15.3698 142.682 19.0285C143.952 20.9698 144.586 23.0978 144.586 25.4125ZM132.77 27.0365C134.189 27.0365 134.898 26.4391 134.898 25.2445C134.898 24.3858 134.562 23.6951 133.89 23.1725C133.256 22.6498 132.322 22.3885 131.09 22.3885C129.896 22.3885 128.701 22.8925 127.506 23.9005C126.312 24.8711 125.714 25.9165 125.714 27.0365H132.77ZM161.564 28.9405C161.564 24.4605 163.132 20.7645 166.268 17.8525C169.404 14.9405 172.988 13.4845 177.02 13.4845C181.052 13.4845 184.617 14.9405 187.716 17.8525C190.815 20.7271 192.364 24.4045 192.364 28.8845C192.364 31.9831 191.561 34.7458 189.956 37.1725C188.351 39.5618 186.391 41.3351 184.076 42.4925C181.799 43.6125 179.428 44.1725 176.964 44.1725C174.5 44.1725 172.111 43.5751 169.796 42.3805C167.481 41.1485 165.521 39.3565 163.916 37.0045C162.348 34.6151 161.564 31.9271 161.564 28.9405ZM173.268 32.9725C174.463 33.8685 175.676 34.3165 176.908 34.3165C178.14 34.3165 179.372 33.8498 180.604 32.9165C181.836 31.9831 182.452 30.6018 182.452 28.7725C182.452 26.9431 181.873 25.5805 180.716 24.6845C179.559 23.7885 178.308 23.3405 176.964 23.3405C175.62 23.3405 174.369 23.8071 173.212 24.7405C172.055 25.6738 171.476 27.0551 171.476 28.8845C171.476 30.6765 172.073 32.0391 173.268 32.9725ZM219.386 28.9405C219.386 30.5085 219.909 31.7405 220.954 32.6365C222 33.4951 223.101 33.9245 224.258 33.9245C225.453 33.9245 226.554 33.5885 227.562 32.9165C228.608 32.2071 229.448 31.8525 230.082 31.8525C231.202 31.8525 232.565 32.8418 234.17 34.8205C235.029 35.9031 235.458 36.8738 235.458 37.7325C235.458 39.1511 234.432 40.4765 232.378 41.7085C230.25 43.2018 227.637 43.9485 224.538 43.9485C221.066 43.9485 217.725 42.6978 214.514 40.1965C212.984 39.0018 211.733 37.4151 210.762 35.4365C209.792 33.4205 209.306 31.2178 209.306 28.8285C209.306 26.4018 209.792 24.2178 210.762 22.2765C211.733 20.2978 212.984 18.7111 214.514 17.5165C217.613 15.0525 220.917 13.8205 224.426 13.8205C225.845 13.8205 227.226 14.0258 228.57 14.4365C229.914 14.8098 230.904 15.1831 231.538 15.5565L232.434 16.1165C233.106 16.5645 233.629 16.9191 234.002 17.1805C234.973 17.9271 235.458 18.7858 235.458 19.7565C235.458 20.6898 235.066 21.7538 234.282 22.9485C232.938 25.0018 231.65 26.0285 230.418 26.0285C229.709 26.0285 228.701 25.6178 227.394 24.7965C226.722 24.1618 225.752 23.8445 224.482 23.8445C223.25 23.8445 222.093 24.2925 221.01 25.1885C219.928 26.0845 219.386 27.3351 219.386 28.9405ZM255.1 14.2685C258.833 14.2685 261.932 15.6871 264.396 18.5245C266.897 21.3618 268.148 24.8338 268.148 28.9405V38.7965C268.148 39.6551 268.11 40.3085 268.036 40.7565C267.998 41.1671 267.83 41.6525 267.532 42.2125C267.046 43.1831 265.609 43.6685 263.22 43.6685C260.942 43.6685 259.524 43.1831 258.964 42.2125C258.665 41.6525 258.478 41.1485 258.404 40.7005C258.366 40.2525 258.348 39.5805 258.348 38.6845V28.8845C258.348 27.3538 257.918 26.1591 257.06 25.3005C256.201 24.4418 255.1 24.0125 253.756 24.0125C252.449 24.0125 251.292 24.4231 250.284 25.2445C249.276 26.0285 248.697 26.9245 248.548 27.9325V38.7965C248.548 39.6551 248.51 40.3085 248.436 40.7565C248.398 41.1671 248.23 41.6525 247.932 42.2125C247.446 43.1831 246.009 43.6685 243.62 43.6685C241.268 43.6685 239.83 43.1645 239.308 42.1565C239.046 41.5965 238.878 41.1111 238.804 40.7005C238.766 40.2898 238.748 39.6365 238.748 38.7405V5.25245C238.748 4.39379 238.766 3.75912 238.804 3.34846C238.878 2.90045 239.046 2.41512 239.308 1.89245C239.83 0.884454 241.286 0.380454 243.676 0.380454C246.028 0.380454 247.446 0.884454 247.932 1.89245C248.23 2.45246 248.398 2.95646 248.436 3.40445C248.51 3.81512 248.548 4.44979 248.548 5.30845V17.6845C250.414 15.4071 252.598 14.2685 255.1 14.2685ZM272.654 19.0845C272.654 18.2258 272.673 17.5911 272.71 17.1805C272.785 16.7325 272.953 16.2285 273.214 15.6685C273.737 14.6978 275.193 14.2125 277.582 14.2125C279.374 14.2125 280.643 14.5298 281.39 15.1645C282.025 15.6871 282.361 16.4898 282.398 17.5725C282.435 17.9458 282.454 18.4871 282.454 19.1965V38.7965C282.454 39.6551 282.417 40.3085 282.342 40.7565C282.305 41.1671 282.137 41.6525 281.838 42.2125C281.353 43.1831 279.915 43.6685 277.526 43.6685C275.174 43.6685 273.737 43.1645 273.214 42.1565C272.953 41.5965 272.785 41.1111 272.71 40.7005C272.673 40.2898 272.654 39.6365 272.654 38.7405V19.0845ZM281.838 8.72446C281.577 9.24712 281.091 9.62046 280.382 9.84446C279.673 10.0685 278.721 10.1805 277.526 10.1805C276.369 10.1805 275.435 10.0685 274.726 9.84446C274.017 9.62046 273.513 9.22846 273.214 8.66846C272.953 8.10846 272.785 7.62312 272.71 7.21246C272.673 6.76445 272.654 6.11112 272.654 5.25245C272.654 4.39379 272.673 3.75912 272.71 3.34846C272.785 2.90045 272.953 2.41512 273.214 1.89245C273.737 0.884454 275.193 0.380454 277.582 0.380454C279.934 0.380454 281.353 0.884454 281.838 1.89245C282.137 2.45246 282.305 2.95646 282.342 3.40445C282.417 3.81512 282.454 4.44979 282.454 5.30845C282.454 6.16712 282.417 6.82045 282.342 7.26846C282.305 7.67912 282.137 8.16445 281.838 8.72446ZM296.168 28.9405C296.168 30.5085 296.69 31.7405 297.736 32.6365C298.781 33.4951 299.882 33.9245 301.04 33.9245C302.234 33.9245 303.336 33.5885 304.344 32.9165C305.389 32.2071 306.229 31.8525 306.864 31.8525C307.984 31.8525 309.346 32.8418 310.952 34.8205C311.81 35.9031 312.24 36.8738 312.24 37.7325C312.24 39.1511 311.213 40.4765 309.16 41.7085C307.032 43.2018 304.418 43.9485 301.32 43.9485C297.848 43.9485 294.506 42.6978 291.296 40.1965C289.765 39.0018 288.514 37.4151 287.544 35.4365C286.573 33.4205 286.088 31.2178 286.088 28.8285C286.088 26.4018 286.573 24.2178 287.544 22.2765C288.514 20.2978 289.765 18.7111 291.296 17.5165C294.394 15.0525 297.698 13.8205 301.208 13.8205C302.626 13.8205 304.008 14.0258 305.352 14.4365C306.696 14.8098 307.685 15.1831 308.32 15.5565L309.216 16.1165C309.888 16.5645 310.41 16.9191 310.784 17.1805C311.754 17.9271 312.24 18.7858 312.24 19.7565C312.24 20.6898 311.848 21.7538 311.064 22.9485C309.72 25.0018 308.432 26.0285 307.2 26.0285C306.49 26.0285 305.482 25.6178 304.176 24.7965C303.504 24.1618 302.533 23.8445 301.264 23.8445C300.032 23.8445 298.874 24.2925 297.792 25.1885C296.709 26.0845 296.168 27.3351 296.168 28.9405ZM315.017 28.9405C315.017 24.4605 316.585 20.7645 319.721 17.8525C322.857 14.9405 326.441 13.4845 330.473 13.4845C334.505 13.4845 338.071 14.9405 341.169 17.8525C344.268 20.7271 345.817 24.4045 345.817 28.8845C345.817 31.9831 345.015 34.7458 343.409 37.1725C341.804 39.5618 339.844 41.3351 337.529 42.4925C335.252 43.6125 332.881 44.1725 330.417 44.1725C327.953 44.1725 325.564 43.5751 323.249 42.3805C320.935 41.1485 318.975 39.3565 317.369 37.0045C315.801 34.6151 315.017 31.9271 315.017 28.9405ZM326.721 32.9725C327.916 33.8685 329.129 34.3165 330.361 34.3165C331.593 34.3165 332.825 33.8498 334.057 32.9165C335.289 31.9831 335.905 30.6018 335.905 28.7725C335.905 26.9431 335.327 25.5805 334.169 24.6845C333.012 23.7885 331.761 23.3405 330.417 23.3405C329.073 23.3405 327.823 23.8071 326.665 24.7405C325.508 25.6738 324.929 27.0551 324.929 28.8845C324.929 30.6765 325.527 32.0391 326.721 32.9725Z" fill="#F2622E"/>
</svg>
